<svg width="1613" height="1613" viewBox="0 0 1613 1613" fill="none" xmlns="http://www.w3.org/2000/svg">
<rect width="1613" height="1613" fill="white"/>
<ellipse cx="1030.5" cy="1035" rx="270.5" ry="272" fill="#56A681"/>
<mask id="mask0_35_134" style="mask-type:luminance" maskUnits="userSpaceOnUse" x="425" y="425" width="763" height="763">
<path d="M1187.99 425H425V1188H1187.99V425Z" fill="white"/>
</mask>
<g mask="url(#mask0_35_134)">
<path d="M717.088 1143.33C714.405 1143.33 711.701 1142.85 709.085 1141.85C700.435 1138.54 694.735 1130.22 694.735 1120.95V492.06C694.735 486.561 696.769 481.252 700.435 477.151C702.346 475.016 747.812 425 806.5 425C865.188 425 910.654 475.016 912.565 477.151C916.231 481.252 918.265 486.561 918.265 492.06V1120.94C918.265 1130.21 912.554 1138.51 903.892 1141.82C895.253 1145.12 885.485 1142.76 879.304 1135.89C878.846 1135.39 844.958 1098.59 806.5 1098.59C768.042 1098.59 734.031 1135.53 733.696 1135.91C729.382 1140.73 723.302 1143.33 717.088 1143.33ZM806.5 1053.88C832.251 1053.88 855.464 1063.51 873.559 1074.5V501.359C862.293 490.954 835.715 469.707 806.5 469.707C777.285 469.707 750.74 490.92 739.441 501.359V1074.49C757.536 1063.5 780.749 1053.87 806.5 1053.87V1053.88Z" fill="#2D342E"/>
<path d="M717.076 828.892C711.768 828.892 706.436 827.004 702.156 823.181C692.958 814.944 692.198 800.794 700.435 791.596C702.346 789.472 747.801 739.445 806.5 739.445C865.199 739.445 910.654 789.461 912.565 791.596C920.802 800.794 920.02 814.922 910.822 823.159C901.646 831.374 887.541 830.614 879.304 821.471C878.969 821.102 845.026 784.152 806.5 784.152C787.086 784.152 768.768 793.842 756.82 801.968C742.771 811.524 733.785 821.371 733.696 821.471C729.292 826.4 723.19 828.904 717.076 828.904V828.892Z" fill="#2D342E"/>
<path d="M447.353 828.881C441.91 828.881 436.445 826.903 432.131 822.89C423.089 814.486 422.586 800.325 430.991 791.272C432.958 789.159 479.821 739.423 538.274 739.423C596.728 739.423 642.428 789.439 644.34 791.573C652.577 800.772 651.794 814.899 642.596 823.136C633.409 831.362 619.315 830.591 611.078 821.438C610.531 820.834 576.688 784.13 538.274 784.13C518.738 784.13 499.95 793.909 487.633 802.102C473.171 811.725 463.794 821.639 463.704 821.739C459.301 826.478 453.344 828.87 447.353 828.87V828.881Z" fill="#2D342E"/>
<path d="M985.313 828.892C980.004 828.892 974.673 827.004 970.393 823.181C961.194 814.944 960.434 800.794 968.671 791.596C970.583 789.472 1016.04 739.445 1074.74 739.445C1133.44 739.445 1180.05 789.182 1182.02 791.294C1190.43 800.336 1189.9 814.486 1180.86 822.891C1171.83 831.284 1157.71 830.77 1149.31 821.762C1149.02 821.449 1139.68 811.658 1125.39 802.135C1113.07 793.932 1094.28 784.163 1074.75 784.163C1055.21 784.163 1037.02 793.854 1025.07 801.979C1011.02 811.535 1002.03 821.382 1001.94 821.482C997.529 826.411 991.438 828.915 985.324 828.915L985.313 828.892Z" fill="#2D342E"/>
<path d="M985.325 1143.33C982.642 1143.33 979.938 1142.85 977.322 1141.85C968.672 1138.54 962.972 1130.22 962.972 1120.95V492.06C962.972 486.561 965.006 481.252 968.672 477.151C970.583 475.016 1016.05 425 1074.74 425C1133.43 425 1180.05 474.736 1182.02 476.849C1185.87 480.984 1188 486.416 1188 492.06V1119.44C1188 1128.56 1182.46 1136.77 1174 1140.17C1165.55 1143.57 1155.89 1141.52 1149.56 1134.97C1148.93 1134.32 1113.59 1098.58 1074.74 1098.58C1035.89 1098.58 1002.27 1135.51 1001.93 1135.89C997.619 1140.72 991.539 1143.32 985.325 1143.32V1143.33ZM1007.68 501.359V1074.49C1025.77 1063.5 1048.99 1053.87 1074.74 1053.87C1100.49 1053.87 1124.76 1063.57 1143.28 1074.43V501.572C1131.56 491.065 1104.11 469.707 1074.74 469.707C1045.37 469.707 1018.98 490.92 1007.68 501.359Z" fill="#2D342E"/>
<path d="M447.353 1143.32C444.604 1143.32 441.832 1142.81 439.172 1141.76C430.611 1138.41 425 1130.13 425 1120.94V492.06C425 486.416 427.135 480.984 430.979 476.849C432.947 474.736 479.81 425 538.263 425C596.716 425 642.417 475.016 644.328 477.15C647.994 481.252 650.028 486.561 650.028 492.06V1120.94C650.028 1130.21 644.317 1138.51 635.655 1141.82C627.016 1145.11 617.248 1142.76 611.067 1135.89C610.598 1135.38 576.722 1098.59 538.263 1098.59C499.805 1098.59 464.051 1135.82 463.693 1136.2C459.39 1140.83 453.433 1143.32 447.353 1143.32ZM469.717 501.572V1075.04C488.248 1063.84 512.099 1053.87 538.263 1053.87C564.427 1053.87 587.227 1063.5 605.322 1074.49V501.359C594.056 490.954 567.479 469.707 538.263 469.707C509.048 469.707 481.464 491.043 469.717 501.572Z" fill="#2D342E"/>
<path d="M940.618 1188C894.158 1188 876.555 1145.98 873.738 1123.76L918.087 1118.13L918.064 1117.94C918.064 1118.02 919.26 1125.95 923.574 1133.13C928.939 1142.09 935.198 1143.29 940.618 1143.29C946.039 1143.29 952.298 1142.09 957.663 1133.13C961.977 1125.94 963.162 1118.02 963.173 1117.94L963.15 1118.13L1007.5 1123.76C1004.68 1145.98 987.079 1188 940.618 1188Z" fill="#2D342E"/>
<path d="M940.618 559.121C894.158 559.121 876.555 517.096 873.738 494.877L918.087 489.255L918.064 489.065C918.064 489.143 919.26 497.067 923.574 504.254C928.939 513.207 935.209 514.414 940.618 514.414C946.028 514.414 952.298 513.207 957.663 504.254C961.977 497.056 963.162 489.143 963.173 489.065L963.15 489.255L1007.5 494.877C1004.68 517.096 987.079 559.121 940.618 559.121Z" fill="#2D342E"/>
<path d="M940.618 873.555C894.158 873.555 876.555 831.53 873.738 809.311L918.087 803.689L918.064 803.499C918.064 803.577 919.26 811.502 923.574 818.688C928.939 827.641 935.209 828.848 940.618 828.848C946.028 828.848 952.298 827.641 957.663 818.688C961.977 811.49 963.162 803.577 963.173 803.499L963.15 803.689L1007.5 809.311C1004.68 831.53 987.079 873.566 940.618 873.566V873.555Z" fill="#2D342E"/>
<path d="M672.382 873.555C625.921 873.555 608.318 831.53 605.501 809.3L649.85 803.678L649.827 803.488C649.839 803.566 651.023 811.49 655.337 818.677C660.702 827.629 666.972 828.837 672.382 828.837C677.791 828.837 684.061 827.629 689.426 818.677C693.74 811.479 694.925 803.566 694.936 803.488L694.914 803.678L739.262 809.3C736.446 831.519 718.843 873.543 672.382 873.543V873.555Z" fill="#2D342E"/>
<path d="M672.382 559.121C625.921 559.121 608.318 517.096 605.501 494.877L649.85 489.255L649.827 489.065C649.839 489.143 651.023 497.067 655.337 504.254C660.702 513.207 666.972 514.414 672.382 514.414C677.791 514.414 684.061 513.207 689.426 504.254C693.74 497.056 694.925 489.143 694.936 489.065L694.914 489.255L739.262 494.877C736.446 517.096 718.843 559.121 672.382 559.121Z" fill="#2D342E"/>
<path d="M672.382 1188C625.921 1188 608.318 1145.98 605.501 1123.76L649.85 1118.13L649.827 1117.94C649.839 1118.02 651.023 1125.95 655.337 1133.13C660.702 1142.09 666.961 1143.29 672.382 1143.29C677.802 1143.29 684.061 1142.09 689.426 1133.13C693.74 1125.94 694.925 1118.02 694.936 1117.94L694.914 1118.13L739.262 1123.76C736.446 1145.98 718.843 1188 672.382 1188Z" fill="#2D342E"/>
</g>
</svg>
