<svg width="18" height="18" viewBox="0 0 18 18" fill="none" xmlns="http://www.w3.org/2000/svg">
<path d="M8.11328 2.62968C8.67927 2.38711 9.32073 2.38711 9.88672 2.62968L13.7959 4.30546C14.0712 4.4237 14.2498 4.6943 14.25 4.99394V8.93437C14.2499 10.3875 13.5477 11.7509 12.3652 12.5955L9.87207 14.3767C9.35052 14.7493 8.64948 14.7493 8.12793 14.3767L5.63477 12.5955C4.45226 11.7509 3.75009 10.3875 3.75 8.93437V4.99394C3.75019 4.6943 3.92879 4.4237 4.2041 4.30546L8.11328 2.62968ZM11.875 5.96854C11.4438 5.62368 10.8138 5.69371 10.4688 6.12479L8.16797 9.00175L7.45703 8.29276C7.06654 7.9024 6.43346 7.9024 6.04297 8.29276C5.65249 8.68325 5.65257 9.31629 6.04297 9.70683L7.14746 10.8123C7.77963 11.4445 8.82139 11.3864 9.37988 10.6883L12.0312 7.37479C12.3761 6.94354 12.3062 6.31351 11.875 5.96854Z" fill="#222222"/>
</svg>
