<svg width="1613" height="1613" viewBox="0 0 1613 1613" fill="none" xmlns="http://www.w3.org/2000/svg">
<rect width="1613" height="1613" fill="white"/>
<ellipse cx="1016.5" cy="1019" rx="270.5" ry="272" fill="#56A681"/>
<path d="M1191.62 566.54L1169.5 618.416C1200.73 632.913 1207.57 645.555 1207.57 649.208C1207.57 655.302 1192.73 673.073 1146.9 689.084C1121.77 697.847 1092.17 704.566 1059.82 708.994C1055.03 699.248 1051.01 689.595 1048.23 679.887C1035.11 633.973 1094.95 575.397 1143.01 528.31C1158.29 513.359 1172.71 499.24 1185.18 485.424L1185.14 485.386C1196.81 473.16 1202.62 459.666 1202.62 444.809C1202.62 403.229 1157.46 372.324 1064.52 350.351C987.266 332.069 884.898 322 776.326 322C667.753 322 565.386 332.069 488.093 350.37C395.16 372.362 350 403.248 350 444.828C350 445.358 350.036 445.869 350.054 446.38C350.054 446.551 350.073 446.683 350.091 446.853C350.127 448.065 350.218 449.276 350.345 450.468C351.107 460.821 351.343 471.476 351.579 482.756C353.175 556.434 355.135 648.148 514.565 715.41C625.351 762.157 684.718 807.73 696.076 854.742C699.432 868.595 698.67 883.736 693.753 900.277C635.475 898.044 581.769 889.149 540.238 874.652C494.407 858.659 479.583 840.888 479.583 834.794C479.583 831.141 486.424 818.48 517.649 804.002L495.532 752.126C437.363 779.114 425.152 811.988 425.152 834.794C425.152 861.971 442.116 900.277 522.965 928.496C562.864 942.425 612.233 951.699 665.721 955.559C660.731 962.865 655.143 970.378 648.974 978.119C605.574 1032.64 586.705 1088.36 592.91 1143.72C601.728 1222.36 657.828 1271.94 674.811 1285.28L682.069 1291H742.233L747.277 1267.3C764.514 1185.13 843.295 1108.67 969.122 1052.01C1009.18 1033.97 1054.51 1011.64 1086.8 982.832C1125.12 948.652 1141.22 908.832 1134.67 864.489C1129.08 826.732 1109.86 793.536 1090.32 761.589C1117.23 756.858 1142.18 750.612 1164.2 742.928C1245.04 714.71 1262.02 676.385 1262.02 649.227C1262.02 626.402 1249.81 593.528 1191.64 566.559L1191.62 566.54ZM514.02 402.605C585.761 387.237 678.911 378.777 776.326 378.777C873.74 378.777 966.891 387.237 1038.63 402.605C1113.38 418.616 1140.93 436.955 1147.29 444.828C1146.86 445.377 1146.31 445.945 1145.68 446.588L1145.59 446.513C1145.26 446.891 1144.9 447.27 1144.55 447.648C1134.65 456.543 1105.58 472.725 1038.63 487.09C966.891 502.457 873.74 510.917 776.326 510.917C678.911 510.917 585.743 502.457 514.02 487.09C439.268 471.078 411.725 452.739 405.357 444.847C411.725 436.974 439.268 418.635 514.02 402.624V402.605ZM1040.35 785.511C1059.01 815.887 1076.61 844.579 1080.83 873.138C1088.51 925.051 1033.1 961.351 947.513 999.884C813.503 1060.22 728.39 1140.58 699.723 1233.31C683.72 1218.76 652.24 1184.58 646.906 1137.13C642.497 1097.81 657.266 1056.51 690.778 1014.42C706.418 994.774 719.046 975.867 728.716 957.603C815.48 956.979 895.676 942.557 949.491 917.802L927.518 865.851C885.243 885.307 820.179 897.798 749.781 900.353C753.755 879.781 753.428 860.003 748.802 840.869C740.292 805.611 717.903 773.815 680.381 743.685C645.89 715.978 598.317 689.52 534.94 662.778C428.055 617.677 410.746 568.224 407.062 512.393C428.127 522.538 455.071 531.471 488.056 539.268C565.367 557.55 667.717 567.638 776.289 567.638C879.165 567.638 976.452 558.591 1052.15 542.069C1011.56 588.134 980.099 640.218 996.048 696.068C997.808 702.257 999.894 708.332 1002.23 714.294C989.752 714.918 977.051 715.24 964.205 715.24C883.665 715.24 807.17 702.162 759.543 680.246L737.571 732.197C792.583 757.501 875.173 772.017 964.205 772.017C986.776 772.017 1008.97 771.071 1030.43 769.254C1033.7 774.724 1037.02 780.117 1040.32 785.492L1040.35 785.511Z" fill="#2D342E"/>
</svg>
