<svg width="1613" height="1613" viewBox="0 0 1613 1613" fill="none" xmlns="http://www.w3.org/2000/svg">
<rect width="1613" height="1613" fill="white"/>
<ellipse cx="1016.5" cy="1079" rx="270.5" ry="272" fill="#56A681"/>
<path d="M1017.55 845.537L1066.9 916.24L1145.64 953.506L1167 908.015L1100.28 876.433L1046.79 799.794L960.938 783.945C956.826 772.275 952.23 761.057 947.169 750.357L1054.51 706.738V578.856L1100.45 551.721L1075.06 508.37L1004.43 550.083V672.832L921.561 706.52C909.09 689.183 895.32 674.955 880.601 664.071C911.337 641.217 931.301 604.569 931.301 563.307C931.301 519.722 909.006 481.269 875.29 458.815L919.346 414.578L883.931 379L823.958 439.221C818.247 438.418 812.436 437.967 806.508 437.967C800.581 437.967 794.67 438.418 788.926 439.238L728.919 379L693.504 414.561L737.61 458.849C703.927 481.319 681.682 519.738 681.682 563.291C681.682 604.553 701.646 641.217 732.382 664.055C717.663 674.939 703.91 689.166 691.423 706.504L608.555 672.815V550.066L537.925 508.353L512.534 551.705L558.472 578.839V706.721L665.815 750.34C660.753 761.04 656.158 772.258 652.045 783.928L566.197 799.777L512.7 876.416L446 908.015L467.362 953.506L546.1 916.24L595.451 845.537L637.227 837.829C632.481 860.935 629.401 885.11 628.119 909.904L536.643 984.269V1114.86L487.142 1144.1L512.534 1187.45L586.727 1143.63V1008.26L628.785 974.07C633.397 1037.25 649.681 1095.93 675.788 1142.23C709.521 1202.05 755.959 1235 806.508 1235C857.058 1235 903.495 1202.05 937.228 1142.23C963.336 1095.93 979.62 1037.25 984.232 974.07L1026.29 1008.26V1143.63L1100.48 1187.45L1125.87 1144.1L1076.37 1114.86V984.269L984.898 909.904C983.616 885.11 980.535 860.918 975.79 837.829L1017.57 845.537H1017.55ZM678.169 961.816H934.847C933.266 991.391 928.87 1019.83 921.927 1046.13H691.106C684.147 1019.83 679.768 991.408 678.186 961.816H678.169ZM678.169 911.526C679.751 881.95 684.147 853.512 691.09 827.213H921.91C928.87 853.512 933.249 881.933 934.831 911.526H678.153H678.169ZM731.783 563.307C731.783 521.929 765.299 488.274 806.508 488.274C847.717 488.274 881.234 521.929 881.234 563.307C881.234 604.686 847.717 638.341 806.508 638.341C765.299 638.341 731.783 604.686 731.783 563.307ZM893.638 755.874C897.418 762.578 900.948 769.6 904.244 776.906H708.755C712.052 769.6 715.582 762.578 719.362 755.874C743.821 712.506 774.773 688.615 806.508 688.615C838.243 688.615 869.196 712.506 893.655 755.874H893.638ZM893.638 1117.45C869.179 1160.82 838.227 1184.71 806.492 1184.71C774.757 1184.71 743.804 1160.82 719.345 1117.45C715.565 1110.75 712.036 1103.72 708.739 1096.42H904.228C900.931 1103.72 897.401 1110.75 893.622 1117.45H893.638Z" fill="#2D342E"/>
</svg>
