<svg width="1613" height="1613" viewBox="0 0 1613 1613" fill="none" xmlns="http://www.w3.org/2000/svg">
<rect width="1613" height="1613" fill="white"/>
<ellipse cx="1039.5" cy="917" rx="270.5" ry="272" fill="#56A681"/>
<path d="M920.945 608.247C855.645 554.612 799.23 508.106 799.23 452.472C802.079 432.913 813.515 415.745 830.265 405.922C845.399 395.187 851.394 375.28 844.762 357.721C838.13 339.944 820.487 329.035 801.994 331.295C671.436 347.246 610.43 505.411 610.43 607.247C613.278 656.535 629.518 704.084 657.279 744.462C669.948 762.196 678.748 782.493 683 804.051C683 837.431 672.456 837.431 661.233 837.431C645.036 837.431 636.873 833.954 634.577 830.695C630.581 817.482 631.601 803.225 637.383 790.708C643.08 773.8 636.745 755.068 622.078 745.288C607.241 736.204 588.366 737.769 575.144 749.2C517.582 803.443 483.359 878.809 480 958.826C480 1122.99 602.055 1221 806.5 1221C1010.95 1221 1133 1122.99 1133 958.826C1133 782.493 1015.41 685.873 920.945 608.247ZM806.5 1146.81C711.653 1146.81 552.57 1122.38 552.57 958.826C552.952 928.445 560.392 898.629 574.336 871.811C574.762 872.463 575.187 873.115 575.612 873.68C596.103 900.28 628.37 914.493 661.361 911.494C706.977 911.494 755.697 883.329 755.697 803.921C752.508 768.759 740.137 735.118 719.816 706.562C699.07 677.354 686.443 643.018 683.127 607.073C684.148 555.829 699.367 505.889 727.001 463.121C732.442 548.44 801.994 605.682 875.499 666.054C966.391 740.811 1060.52 818.134 1060.52 958.826C1060.43 1122.38 901.304 1146.81 806.5 1146.81Z" fill="#2D342E"/>
</svg>
