<?xml version="1.0" encoding="UTF-8"?>
<svg id="Calque_1" data-name="Calque 1" xmlns="http://www.w3.org/2000/svg" viewBox="0 0 1457.25 669.31">
  <defs>
    <style>
      .cls-1 {
        fill: #f2c84b;
      }
    </style>
  </defs>
  <path class="cls-1" d="M1203.85,68.47c35.48.26,64.4,29.33,60.08,64.55-6.32,51.38-19.75,101.75-40,149.62-28.61,67.64-70.26,128.99-122.57,180.53-52.32,51.55-114.27,92.28-182.33,119.88-68.06,27.6-140.89,41.53-214.33,40.98-73.44-.54-146.05-15.55-213.69-44.16-67.64-28.61-128.99-70.26-180.53-122.57-51.54-52.32-92.28-114.27-119.88-182.33-19.53-48.17-32.22-98.72-37.77-150.2-3.81-35.28,25.55-63.92,61.03-63.65h0c35.48.26,63.54,29.39,68.55,64.52,4.93,34.59,14.07,68.52,27.26,101.04,21.26,52.42,52.64,100.14,92.34,140.44,39.7,40.3,86.95,72.38,139.05,94.41,52.1,22.04,108.03,33.59,164.6,34.01,56.57.42,112.66-10.31,165.08-31.57,52.42-21.26,100.14-52.64,140.44-92.34,40.29-39.7,72.38-86.95,94.41-139.05,13.67-32.32,23.31-66.12,28.76-100.63,5.53-35.05,34.02-63.76,69.5-63.49h0Z"/>
</svg>