<svg width="1613" height="1613" viewBox="0 0 1613 1613" fill="none" xmlns="http://www.w3.org/2000/svg">
<rect width="1613" height="1613" fill="white"/>
<ellipse cx="1039.5" cy="917" rx="270.5" ry="272" fill="#56A681"/>
<path d="M1171.85 1059.81L980.152 660.895L1157.28 515.897C1169.12 506.216 1172.24 488.825 1164.5 475.468L1092.68 351.626C1092.24 348.175 1091.27 344.768 1089.64 341.496C1085.9 334.011 1079.56 328.453 1071.73 325.854C1068.47 324.778 1065.08 324.285 1061.74 324.33L870.135 233.925C861.862 230.025 852.4 230.025 844.171 233.925L327.311 479.681C323.086 480.488 318.95 482.102 315.297 484.701C306.76 490.752 301.787 500.658 302.007 511.236V511.505C302.007 511.505 302.007 511.639 302.007 511.729V673.714C302.007 678.151 302.887 682.454 304.691 686.488L360.624 814.319C364.409 822.97 371.714 829.334 380.647 831.799L517.376 869.763C523.977 871.556 531.062 871.108 537.355 868.419L688.607 803.786L720.38 867.612C726.409 879.758 739.347 886.526 752.549 884.42L761.966 882.941L845.095 1065.14L833.125 1099.92C830.441 1107.68 830.837 1116.06 834.225 1123.54L857.813 1175.45C861.994 1184.68 870.399 1191.27 880.212 1193.11L954.76 1207.05C956.608 1207.4 958.456 1207.54 960.305 1207.54C963.737 1207.54 967.082 1206.96 970.338 1205.84L1114.46 1155.23C1120.09 1153.26 1125.02 1149.67 1128.72 1144.88L1168.5 1092.97C1175.72 1083.56 1177.04 1070.56 1171.89 1059.85L1171.85 1059.81ZM906.22 1050.26L814.774 849.862L834.709 839.867C846.811 833.816 853.588 820.594 851.564 807.013L840.386 731.758C837.834 714.681 822.123 702.893 805.313 705.447C788.546 708.047 776.928 724.048 779.481 741.17L787.27 793.656L759.546 807.551L730.545 749.328C723.284 734.761 705.99 728.262 691.159 734.581L524.945 805.624L557.555 760.802C561.471 755.423 563.627 748.79 563.627 742.111V592.766C563.627 579.902 556.058 568.473 544.352 563.677L411.32 508.95L857.197 296.989L988.205 358.842L692.875 511.684C677.737 519.528 671.664 538.442 679.365 553.861C684.646 564.439 695.164 571.028 706.826 571.028C711.622 571.028 716.463 569.862 720.776 567.621L1048.14 398.24L1097.91 484.074L922.371 627.772C911.061 637.05 907.629 652.737 914.01 666.004L1108.08 1069.8L1085.81 1098.89L957.928 1143.8L907.013 1134.3L895.351 1108.71L907.365 1073.93C910.049 1066.17 909.653 1057.74 906.22 1050.3V1050.26ZM502.062 731.758L463.468 784.782L411.012 770.215L367.093 670.038L364.629 557.447L502.018 613.967V731.758H502.062Z" fill="#2D342E"/>
<path d="M967.083 1050.22C961.318 1056.22 958.194 1064.11 958.326 1072.49C958.414 1080.87 961.714 1088.72 967.611 1094.54C973.42 1100.33 981.033 1103.51 989.131 1103.51C997.228 1103.51 1005.33 1100.15 1011.18 1094.05L1052.46 1051.02C1061.61 1041.48 1063.85 1027.04 1058 1015.08L927.521 748.747C919.952 733.283 901.425 726.963 886.199 734.673C878.85 738.393 873.349 744.847 870.752 752.78C868.156 760.714 868.728 769.23 872.425 776.715L993.091 1023.05L967.127 1050.13L967.083 1050.22Z" fill="#2D342E"/>
<path d="M692.217 479.817L876.121 383.63C883.426 379.82 888.839 373.321 891.392 365.343C893.944 357.365 893.24 348.849 889.455 341.408C885.715 333.968 879.334 328.41 871.501 325.855C863.667 323.3 855.306 323.973 848.001 327.827L664.096 424.014C656.791 427.824 651.378 434.323 648.826 442.302C646.274 450.28 646.978 458.796 650.762 466.236C656.043 476.769 666.561 483.268 678.179 483.268C683.019 483.268 687.904 482.058 692.217 479.817Z" fill="#2D342E"/>
</svg>
