<svg width="1613" height="1613" viewBox="0 0 1613 1613" fill="none" xmlns="http://www.w3.org/2000/svg">
<rect width="1613" height="1613" fill="white"/>
<ellipse cx="1076.5" cy="963" rx="270.5" ry="272" fill="#56A681"/>
<path d="M740.596 1312.97C737.494 1312.97 734.33 1312.53 731.229 1311.59C716.568 1307.23 706.825 1293.3 707.765 1278L728.159 944.875H545.895C534.21 944.875 523.37 938.665 517.481 928.535C511.591 918.406 511.497 905.924 517.261 895.731L844.04 316.729C851.59 303.369 867.347 297.003 882.04 301.362C896.733 305.753 906.476 319.709 905.504 335.013L883.951 672.686H1066.12C1077.84 672.686 1088.65 678.927 1094.54 689.057C1100.42 699.187 1100.49 711.669 1094.72 721.892L769.198 1296.32C763.246 1306.82 752.187 1313 740.596 1313V1312.97ZM602.253 879.047H763.12C772.205 879.047 780.852 882.81 787.086 889.427C793.289 896.045 796.516 904.951 795.952 914.015L782.105 1140.07L1009.64 738.577H848.895C839.81 738.577 831.133 734.814 824.899 728.165C818.664 721.516 815.469 712.609 816.064 703.546L830.694 474.291L602.253 879.047Z" fill="#2D342E"/>
</svg>
