<?xml version="1.0" encoding="UTF-8"?>
<svg id="Calque_1" data-name="Calque 1" xmlns="http://www.w3.org/2000/svg" viewBox="0 0 1120 310">
  <defs>
    <style>
      .cls-1 {
        fill: #be4d25;
      }

      .cls-2 {
        fill: #2d342e;
      }

      .cls-3 {
        fill: #f2c84b;
      }

      .cls-4 {
        fill: #56a681;
      }
    </style>
  </defs>
  <g>
    <rect class="cls-1" x="107.75" y="184.62" width="129.91" height="22.59" rx="8" ry="8"/>
    <rect class="cls-3" x="140.94" y="146.5" width="96.71" height="22.59" rx="8" ry="8"/>
    <rect class="cls-4" x="172.71" y="106.97" width="64.95" height="22.59" rx="8" ry="8"/>
  </g>
  <g>
    <path class="cls-2" d="M308.82,173.52h-9.74v31.49h-24.85v-100.26h37.42c21.46,0,36.57,13.41,36.57,35.16,0,13.84-6.35,23.86-16.66,29.23l22.45,35.87h-26.27l-18.92-31.49h0ZM309.24,152.34c7.77,0,13.84-2.54,13.84-12.43s-6.07-12.43-13.84-12.43h-10.17v24.85h10.17,0Z"/>
    <path class="cls-2" d="M362.2,104.75h24.85v100.26h-24.85v-100.26Z"/>
    <path class="cls-2" d="M418.26,127.49h-22.31v-22.73h69.48v22.73h-22.31v77.52h-24.85v-77.52h-.01Z"/>
    <path class="cls-2" d="M474.31,104.75h27.25l28.1,68.63,28.1-68.63h27.4v100.26h-24.85v-52.81h-.71l-20.76,52.81h-18.22l-20.76-52.81h-.71v52.81h-24.85v-100.26h0Z"/>
    <path class="cls-2" d="M596.17,154.88c0-30.64,23.58-51.54,52.25-51.54s52.11,20.9,52.11,51.54-23.58,51.54-52.11,51.54-52.25-20.9-52.25-51.54ZM648.42,182.84c14.69,0,26.55-10.87,26.55-27.96s-11.86-27.96-26.55-27.96-26.69,10.87-26.69,27.96,11.86,27.96,26.69,27.96Z"/>
    <path class="cls-2" d="M711.63,104.75h41.09c26.27,0,47.87,20.9,47.87,50.13s-21.61,50.13-47.87,50.13h-41.09v-100.26ZM751.88,181.57c15.25,0,22.73-11.16,22.73-26.69s-7.48-26.69-22.73-26.69h-15.39v53.38h15.39Z"/>
    <path class="cls-2" d="M810.19,104.75h24.43v21.04h-24.43v-21.04ZM810.19,131.58h24.43v73.43h-24.43v-73.43Z"/>
    <path class="cls-2" d="M843.51,168.29c0-25.7,18.36-38.13,34.74-38.13,12.85,0,19.77,7.06,20.33,8.33h.42v-6.92h24.43v73.43h-24.43v-6.92h-.42c-.56,1.27-7.48,8.33-20.33,8.33-16.38,0-34.74-12.43-34.74-38.13h0ZM883.47,184.81c8.75,0,16.1-6.07,16.1-16.52s-7.34-16.52-16.1-16.52-15.96,6.21-15.96,16.52,7.48,16.52,15.96,16.52Z"/>
    <path class="cls-2" d="M951.11,230.15v-19.35c3.53,2.26,10.87,3.39,16.66,3.39,13.7,0,20.05-6.64,20.05-13.7v-2.4h-.85c-.57,1.27-7.2,8.33-19.63,8.33-16.52,0-35.02-12.57-35.02-38.13s18.5-38.13,35.02-38.13c12.43,0,19.06,7.06,19.63,8.33h.85v-6.92h24.43v66.79c0,29.8-23.58,36.01-39.82,36.01-7.48,0-16.38-.99-21.32-4.24v.02ZM972.43,184.82c8.75,0,15.96-6.07,15.96-16.52s-7.2-16.52-15.96-16.52-16.1,6.21-16.1,16.52,7.48,16.52,16.1,16.52Z"/>
  </g>
</svg>